<svg xmlns="http://www.w3.org/2000/svg" xmlns:xlink="http://www.w3.org/1999/xlink" width="512" height="512" version="1.1" viewBox="0 0 512 512"><title>logo</title><defs><linearGradient id="linearGradient-1" x1="50%" x2="50%" y1="0%" y2="100%"><stop offset="0%" stop-color="#000" stop-opacity=".072"/><stop offset="100%" stop-color="#000"/></linearGradient><linearGradient id="linearGradient-2" x1="50%" x2="50%" y1="0%" y2="100%"><stop offset="0%" stop-color="#000"/><stop offset="100%" stop-color="#000" stop-opacity="0"/></linearGradient><linearGradient id="linearGradient-3" x1="5.197%" x2="53.067%" y1="24.078%" y2="87.5%"><stop offset="0%" stop-color="#6ED5FF"/><stop offset="100%" stop-color="#00C0FF"/></linearGradient><linearGradient id="linearGradient-4" x1="50%" x2="50%" y1="69.498%" y2=".078%"><stop offset="0%" stop-color="#51EFDF"/><stop offset="100%" stop-color="#4245CB"/></linearGradient><linearGradient id="linearGradient-5" x1="24.945%" x2="100%" y1="73.842%" y2="36.188%"><stop offset="0%" stop-color="#51B6EF"/><stop offset="100%" stop-color="#01105D"/></linearGradient><linearGradient id="linearGradient-6" x1="33.333%" x2="66.667%" y1="83.881%" y2="32.301%"><stop offset="0%" stop-color="#51D3EF"/><stop offset="100%" stop-color="#005CB9"/><stop offset="100%" stop-color="#005CB9"/></linearGradient></defs><g id="logo" fill="none" fill-rule="evenodd" stroke="none" stroke-width="1"><g id="Group-3" transform="translate(-82.000000, -82.000000)"><g id="Group"><polygon id="Polygon" fill="#2D2F37" points="336.5 90.5 549.542 213.5 549.542 459.5 336.5 582.5 123.458 459.5 123.458 213.5" transform="translate(336.500000, 336.500000) rotate(-300.000000) translate(-336.500000, -336.500000)"/><polygon id="Polygon-Copy-2" fill="url(#linearGradient-1)" points="283.239 182.75 496.282 305.75 496.282 551.75 283.239 674.75" opacity=".576" transform="translate(389.760562, 428.750000) rotate(-300.000000) translate(-389.760562, -428.750000)"/><polygon id="Polygon-Copy-3" fill="url(#linearGradient-2)" points="389.761 121.25 602.803 244.25 176.718 490.25 176.718 244.25" opacity=".234" transform="translate(389.760562, 305.750000) rotate(-300.000000) translate(-389.760562, -305.750000)"/></g><g id="Group-2" transform="translate(177.000000, 177.000000)"><polygon id="Polygon-Copy" fill="#10AFF8" points="160.156 42.875 261.481 101.375 261.481 218.375 160.156 276.875 58.831 218.375 58.831 101.375" transform="translate(160.156215, 159.875000) rotate(-240.000000) translate(-160.156215, -159.875000)"/><polygon id="Polygon-Copy-5" fill="url(#linearGradient-3)" points="236.15 174.5 134.825 233 33.5 174.5 33.5 57.5" opacity=".685" transform="translate(134.824972, 145.250000) rotate(-240.000000) translate(-134.824972, -145.250000)"/><polygon id="Polygon-Copy-4" fill="url(#linearGradient-4)" points="236.15 -1 236.15 233 134.825 174.5 134.825 57.5" opacity=".279" transform="translate(185.487458, 116.000000) rotate(-240.000000) translate(-185.487458, -116.000000)"/><polygon id="Polygon-Copy-6" fill="url(#linearGradient-5)" points="236.15 57.5 236.15 174.5 134.825 233 33.5 174.5" opacity=".1" transform="translate(134.824972, 145.250000) rotate(-240.000000) translate(-134.824972, -145.250000)"/><path id="Polygon-Copy-9" fill="url(#linearGradient-6)" d="M58.8312431,101.375 L160.155243,159.875 L160.156215,276.875 L58.8312431,218.375 L58.8312431,101.375 Z" opacity=".274"/></g></g></g></svg>